<mxfile host="app.diagrams.net" agent="Mozilla/5.0 (Windows NT 10.0; Win64; x64) AppleWebKit/537.36 (KHTML, like Gecko) Chrome/131.0.0.0 Safari/537.36 Edg/131.0.0.0" version="25.0.3" pages="3">
  <diagram name="Page-1" id="ZHpmcUGHokteA9pCnuxo">
    <mxGraphModel dx="927" dy="574" grid="1" gridSize="10" guides="1" tooltips="1" connect="1" arrows="1" fold="1" page="1" pageScale="1" pageWidth="827" pageHeight="1169" math="0" shadow="0">
      <root>
        <mxCell id="0" />
        <mxCell id="1" parent="0" />
        <mxCell id="RcZH_3BDOCUqXZO8h2bS-22" style="edgeStyle=orthogonalEdgeStyle;rounded=0;orthogonalLoop=1;jettySize=auto;html=1;exitX=0.5;exitY=1;exitDx=0;exitDy=0;entryX=0.5;entryY=0;entryDx=0;entryDy=0;" edge="1" parent="1" source="RcZH_3BDOCUqXZO8h2bS-2" target="RcZH_3BDOCUqXZO8h2bS-4">
          <mxGeometry relative="1" as="geometry" />
        </mxCell>
        <mxCell id="RcZH_3BDOCUqXZO8h2bS-2" value="main()" style="rounded=1;whiteSpace=wrap;html=1;" vertex="1" parent="1">
          <mxGeometry x="155" y="10" width="100" height="40" as="geometry" />
        </mxCell>
        <mxCell id="RcZH_3BDOCUqXZO8h2bS-11" style="edgeStyle=orthogonalEdgeStyle;rounded=0;orthogonalLoop=1;jettySize=auto;html=1;exitX=0.5;exitY=1;exitDx=0;exitDy=0;entryX=0.5;entryY=0;entryDx=0;entryDy=0;" edge="1" parent="1" source="RcZH_3BDOCUqXZO8h2bS-4" target="RcZH_3BDOCUqXZO8h2bS-9">
          <mxGeometry relative="1" as="geometry" />
        </mxCell>
        <mxCell id="RcZH_3BDOCUqXZO8h2bS-4" value="LoadFontData(&#39;SingleStrokeFont.txt&#39;)" style="shape=process;whiteSpace=wrap;html=1;backgroundOutline=1;" vertex="1" parent="1">
          <mxGeometry x="67.5" y="70" width="275" height="60" as="geometry" />
        </mxCell>
        <mxCell id="RcZH_3BDOCUqXZO8h2bS-34" style="edgeStyle=orthogonalEdgeStyle;rounded=0;orthogonalLoop=1;jettySize=auto;html=1;exitX=0.5;exitY=1;exitDx=0;exitDy=0;entryX=0.5;entryY=0;entryDx=0;entryDy=0;" edge="1" parent="1" source="RcZH_3BDOCUqXZO8h2bS-5" target="RcZH_3BDOCUqXZO8h2bS-10">
          <mxGeometry relative="1" as="geometry" />
        </mxCell>
        <mxCell id="RcZH_3BDOCUqXZO8h2bS-5" value="Ask user to input the text file name" style="shape=parallelogram;perimeter=parallelogramPerimeter;whiteSpace=wrap;html=1;fixedSize=1;" vertex="1" parent="1">
          <mxGeometry x="95" y="440" width="220" height="40" as="geometry" />
        </mxCell>
        <mxCell id="RcZH_3BDOCUqXZO8h2bS-6" value="Ask user to input&amp;nbsp;&lt;div&gt;height&amp;nbsp;&lt;span style=&quot;background-color: initial;&quot;&gt;of text again between&lt;/span&gt;&lt;/div&gt;&lt;div&gt;&lt;span style=&quot;background-color: initial;&quot;&gt;&amp;nbsp;4mm to 10mm&lt;/span&gt;&lt;/div&gt;" style="shape=parallelogram;perimeter=parallelogramPerimeter;whiteSpace=wrap;html=1;fixedSize=1;" vertex="1" parent="1">
          <mxGeometry x="400" y="300" width="150" height="60" as="geometry" />
        </mxCell>
        <mxCell id="RcZH_3BDOCUqXZO8h2bS-24" style="edgeStyle=orthogonalEdgeStyle;rounded=0;orthogonalLoop=1;jettySize=auto;html=1;exitX=1;exitY=0.5;exitDx=0;exitDy=0;" edge="1" parent="1" source="RcZH_3BDOCUqXZO8h2bS-7" target="RcZH_3BDOCUqXZO8h2bS-6">
          <mxGeometry relative="1" as="geometry" />
        </mxCell>
        <mxCell id="RcZH_3BDOCUqXZO8h2bS-33" style="edgeStyle=orthogonalEdgeStyle;rounded=0;orthogonalLoop=1;jettySize=auto;html=1;exitX=0.5;exitY=1;exitDx=0;exitDy=0;entryX=0.5;entryY=0;entryDx=0;entryDy=0;" edge="1" parent="1" source="RcZH_3BDOCUqXZO8h2bS-7" target="RcZH_3BDOCUqXZO8h2bS-5">
          <mxGeometry relative="1" as="geometry" />
        </mxCell>
        <mxCell id="RcZH_3BDOCUqXZO8h2bS-7" value="While current height&amp;nbsp;&lt;div&gt;inputted is&amp;nbsp;&lt;div&gt;less than 4mm or higher&amp;nbsp;&lt;/div&gt;&lt;div&gt;than 10mm&lt;/div&gt;&lt;/div&gt;" style="rhombus;whiteSpace=wrap;html=1;" vertex="1" parent="1">
          <mxGeometry x="75" y="270" width="260" height="120" as="geometry" />
        </mxCell>
        <mxCell id="RcZH_3BDOCUqXZO8h2bS-12" style="edgeStyle=orthogonalEdgeStyle;rounded=0;orthogonalLoop=1;jettySize=auto;html=1;exitX=0.5;exitY=1;exitDx=0;exitDy=0;entryX=0.5;entryY=0;entryDx=0;entryDy=0;" edge="1" parent="1" source="RcZH_3BDOCUqXZO8h2bS-9" target="RcZH_3BDOCUqXZO8h2bS-7">
          <mxGeometry relative="1" as="geometry" />
        </mxCell>
        <mxCell id="RcZH_3BDOCUqXZO8h2bS-9" value="Ask user to input the&amp;nbsp;&lt;span style=&quot;background-color: initial;&quot;&gt;height&amp;nbsp;&lt;/span&gt;&lt;span style=&quot;background-color: initial;&quot;&gt;of text between&amp;nbsp;&lt;/span&gt;&lt;span style=&quot;background-color: initial;&quot;&gt;4mm to 10mm&lt;/span&gt;" style="shape=parallelogram;perimeter=parallelogramPerimeter;whiteSpace=wrap;html=1;fixedSize=1;" vertex="1" parent="1">
          <mxGeometry x="100" y="170" width="210" height="50" as="geometry" />
        </mxCell>
        <mxCell id="RcZH_3BDOCUqXZO8h2bS-28" style="edgeStyle=orthogonalEdgeStyle;rounded=0;orthogonalLoop=1;jettySize=auto;html=1;exitX=0.5;exitY=1;exitDx=0;exitDy=0;entryX=0.5;entryY=0;entryDx=0;entryDy=0;" edge="1" parent="1" source="RcZH_3BDOCUqXZO8h2bS-10" target="RcZH_3BDOCUqXZO8h2bS-14">
          <mxGeometry relative="1" as="geometry" />
        </mxCell>
        <mxCell id="RcZH_3BDOCUqXZO8h2bS-40" style="edgeStyle=orthogonalEdgeStyle;rounded=0;orthogonalLoop=1;jettySize=auto;html=1;exitX=1;exitY=0.5;exitDx=0;exitDy=0;entryX=0;entryY=0.5;entryDx=0;entryDy=0;" edge="1" parent="1" source="RcZH_3BDOCUqXZO8h2bS-10" target="RcZH_3BDOCUqXZO8h2bS-37">
          <mxGeometry relative="1" as="geometry" />
        </mxCell>
        <mxCell id="RcZH_3BDOCUqXZO8h2bS-10" value="Can the text file be found&amp;nbsp;&lt;div&gt;and obtained in the&amp;nbsp;&lt;div&gt;same file directory?&lt;/div&gt;&lt;/div&gt;" style="rhombus;whiteSpace=wrap;html=1;" vertex="1" parent="1">
          <mxGeometry x="110" y="515" width="190" height="140" as="geometry" />
        </mxCell>
        <mxCell id="RcZH_3BDOCUqXZO8h2bS-42" style="edgeStyle=orthogonalEdgeStyle;rounded=0;orthogonalLoop=1;jettySize=auto;html=1;exitX=0.5;exitY=1;exitDx=0;exitDy=0;entryX=0.5;entryY=0;entryDx=0;entryDy=0;" edge="1" parent="1" source="RcZH_3BDOCUqXZO8h2bS-14" target="RcZH_3BDOCUqXZO8h2bS-16">
          <mxGeometry relative="1" as="geometry" />
        </mxCell>
        <mxCell id="RcZH_3BDOCUqXZO8h2bS-14" value="Read the file and store its content in the variable &#39;text&#39;" style="rounded=0;whiteSpace=wrap;html=1;" vertex="1" parent="1">
          <mxGeometry x="145" y="700" width="120" height="60" as="geometry" />
        </mxCell>
        <mxCell id="RcZH_3BDOCUqXZO8h2bS-44" style="edgeStyle=orthogonalEdgeStyle;rounded=0;orthogonalLoop=1;jettySize=auto;html=1;exitX=0.5;exitY=1;exitDx=0;exitDy=0;entryX=0.5;entryY=0;entryDx=0;entryDy=0;" edge="1" parent="1" source="RcZH_3BDOCUqXZO8h2bS-16" target="RcZH_3BDOCUqXZO8h2bS-17">
          <mxGeometry relative="1" as="geometry" />
        </mxCell>
        <mxCell id="RcZH_3BDOCUqXZO8h2bS-16" value="Can RS232 Port be opened?" style="rhombus;whiteSpace=wrap;html=1;" vertex="1" parent="1">
          <mxGeometry x="70" y="800" width="270" height="80" as="geometry" />
        </mxCell>
        <mxCell id="RcZH_3BDOCUqXZO8h2bS-26" style="edgeStyle=orthogonalEdgeStyle;rounded=0;orthogonalLoop=1;jettySize=auto;html=1;exitX=0.5;exitY=1;exitDx=0;exitDy=0;entryX=0.5;entryY=0;entryDx=0;entryDy=0;" edge="1" parent="1" source="RcZH_3BDOCUqXZO8h2bS-17" target="RcZH_3BDOCUqXZO8h2bS-18">
          <mxGeometry relative="1" as="geometry" />
        </mxCell>
        <mxCell id="RcZH_3BDOCUqXZO8h2bS-17" value="GenerateGcode()" style="shape=process;whiteSpace=wrap;html=1;backgroundOutline=1;" vertex="1" parent="1">
          <mxGeometry x="145" y="920" width="120" height="60" as="geometry" />
        </mxCell>
        <mxCell id="RcZH_3BDOCUqXZO8h2bS-27" style="edgeStyle=orthogonalEdgeStyle;rounded=0;orthogonalLoop=1;jettySize=auto;html=1;exitX=0.5;exitY=1;exitDx=0;exitDy=0;entryX=0.5;entryY=0;entryDx=0;entryDy=0;" edge="1" parent="1" source="RcZH_3BDOCUqXZO8h2bS-18" target="RcZH_3BDOCUqXZO8h2bS-20">
          <mxGeometry relative="1" as="geometry" />
        </mxCell>
        <mxCell id="RcZH_3BDOCUqXZO8h2bS-18" value="Close the RS232 port" style="rounded=0;whiteSpace=wrap;html=1;" vertex="1" parent="1">
          <mxGeometry x="145" y="1000" width="120" height="60" as="geometry" />
        </mxCell>
        <mxCell id="RcZH_3BDOCUqXZO8h2bS-20" value="End" style="ellipse;whiteSpace=wrap;html=1;" vertex="1" parent="1">
          <mxGeometry x="150" y="1100" width="110" height="50" as="geometry" />
        </mxCell>
        <mxCell id="RcZH_3BDOCUqXZO8h2bS-23" value="" style="endArrow=classic;html=1;rounded=0;entryX=0.5;entryY=0;entryDx=0;entryDy=0;exitX=0.5;exitY=0;exitDx=0;exitDy=0;" edge="1" parent="1" source="RcZH_3BDOCUqXZO8h2bS-6">
          <mxGeometry width="50" height="50" relative="1" as="geometry">
            <mxPoint x="480" y="280" as="sourcePoint" />
            <mxPoint x="205" y="250" as="targetPoint" />
            <Array as="points">
              <mxPoint x="475" y="250" />
              <mxPoint x="350" y="250" />
            </Array>
          </mxGeometry>
        </mxCell>
        <mxCell id="RcZH_3BDOCUqXZO8h2bS-30" value="True" style="text;html=1;align=center;verticalAlign=middle;whiteSpace=wrap;rounded=0;" vertex="1" parent="1">
          <mxGeometry x="340" y="330" width="60" height="30" as="geometry" />
        </mxCell>
        <mxCell id="RcZH_3BDOCUqXZO8h2bS-31" value="False" style="text;html=1;align=center;verticalAlign=middle;whiteSpace=wrap;rounded=0;" vertex="1" parent="1">
          <mxGeometry x="205" y="400" width="60" height="30" as="geometry" />
        </mxCell>
        <mxCell id="RcZH_3BDOCUqXZO8h2bS-35" value="Yes" style="text;html=1;align=center;verticalAlign=middle;whiteSpace=wrap;rounded=0;" vertex="1" parent="1">
          <mxGeometry x="205" y="655" width="60" height="30" as="geometry" />
        </mxCell>
        <mxCell id="RcZH_3BDOCUqXZO8h2bS-41" style="edgeStyle=orthogonalEdgeStyle;rounded=0;orthogonalLoop=1;jettySize=auto;html=1;exitX=0.5;exitY=1;exitDx=0;exitDy=0;entryX=0.5;entryY=0;entryDx=0;entryDy=0;" edge="1" parent="1" source="RcZH_3BDOCUqXZO8h2bS-37" target="RcZH_3BDOCUqXZO8h2bS-39">
          <mxGeometry relative="1" as="geometry" />
        </mxCell>
        <mxCell id="RcZH_3BDOCUqXZO8h2bS-37" value="Output error to user the message:&lt;div&gt;&amp;nbsp;&#39;Error opening text file&#39;&lt;/div&gt;" style="shape=parallelogram;perimeter=parallelogramPerimeter;whiteSpace=wrap;html=1;fixedSize=1;" vertex="1" parent="1">
          <mxGeometry x="380" y="565" width="220" height="40" as="geometry" />
        </mxCell>
        <mxCell id="RcZH_3BDOCUqXZO8h2bS-39" value="return 1" style="ellipse;whiteSpace=wrap;html=1;" vertex="1" parent="1">
          <mxGeometry x="442.5" y="645" width="95" height="40" as="geometry" />
        </mxCell>
        <mxCell id="RcZH_3BDOCUqXZO8h2bS-45" value="No" style="text;html=1;align=center;verticalAlign=middle;whiteSpace=wrap;rounded=0;" vertex="1" parent="1">
          <mxGeometry x="310" y="585" width="60" height="30" as="geometry" />
        </mxCell>
        <mxCell id="IDR14lqXAWypBH-KW9iI-4" style="edgeStyle=orthogonalEdgeStyle;rounded=0;orthogonalLoop=1;jettySize=auto;html=1;exitX=0.5;exitY=1;exitDx=0;exitDy=0;entryX=0.5;entryY=0;entryDx=0;entryDy=0;" edge="1" parent="1" source="IDR14lqXAWypBH-KW9iI-1" target="IDR14lqXAWypBH-KW9iI-2">
          <mxGeometry relative="1" as="geometry" />
        </mxCell>
        <mxCell id="IDR14lqXAWypBH-KW9iI-1" value="Display to user the message:&amp;nbsp;&lt;div&gt;&#39;Unable to open the COM port.&#39;&lt;/div&gt;" style="shape=parallelogram;perimeter=parallelogramPerimeter;whiteSpace=wrap;html=1;fixedSize=1;" vertex="1" parent="1">
          <mxGeometry x="380" y="810" width="250" height="60" as="geometry" />
        </mxCell>
        <mxCell id="IDR14lqXAWypBH-KW9iI-2" value="return 1" style="ellipse;whiteSpace=wrap;html=1;" vertex="1" parent="1">
          <mxGeometry x="455" y="930" width="100" height="40" as="geometry" />
        </mxCell>
        <mxCell id="IDR14lqXAWypBH-KW9iI-3" value="" style="endArrow=classic;html=1;rounded=0;exitX=1;exitY=0.5;exitDx=0;exitDy=0;entryX=0;entryY=0.5;entryDx=0;entryDy=0;" edge="1" parent="1" source="RcZH_3BDOCUqXZO8h2bS-16" target="IDR14lqXAWypBH-KW9iI-1">
          <mxGeometry width="50" height="50" relative="1" as="geometry">
            <mxPoint x="390" y="880" as="sourcePoint" />
            <mxPoint x="440" y="830" as="targetPoint" />
          </mxGeometry>
        </mxCell>
        <mxCell id="IDR14lqXAWypBH-KW9iI-5" value="Yes" style="text;html=1;align=center;verticalAlign=middle;whiteSpace=wrap;rounded=0;" vertex="1" parent="1">
          <mxGeometry x="205" y="880" width="60" height="30" as="geometry" />
        </mxCell>
        <mxCell id="IDR14lqXAWypBH-KW9iI-6" value="No" style="text;html=1;align=center;verticalAlign=middle;whiteSpace=wrap;rounded=0;" vertex="1" parent="1">
          <mxGeometry x="335" y="840" width="60" height="30" as="geometry" />
        </mxCell>
      </root>
    </mxGraphModel>
  </diagram>
  <diagram id="Q6tRgtWSr9nuO0D9FOAc" name="Page-2">
    <mxGraphModel dx="927" dy="574" grid="1" gridSize="10" guides="1" tooltips="1" connect="1" arrows="1" fold="1" page="1" pageScale="1" pageWidth="827" pageHeight="1169" math="0" shadow="0">
      <root>
        <mxCell id="0" />
        <mxCell id="1" parent="0" />
        <mxCell id="iUSJpiGiCA8plbPMokfl-17" style="edgeStyle=orthogonalEdgeStyle;rounded=0;orthogonalLoop=1;jettySize=auto;html=1;exitX=0.5;exitY=1;exitDx=0;exitDy=0;entryX=0.5;entryY=0;entryDx=0;entryDy=0;" parent="1" source="bTQiq8XwT7r109ES2D-Q-1" target="bTQiq8XwT7r109ES2D-Q-2" edge="1">
          <mxGeometry relative="1" as="geometry" />
        </mxCell>
        <mxCell id="bTQiq8XwT7r109ES2D-Q-1" value="LoadFontData" style="shape=process;whiteSpace=wrap;html=1;backgroundOutline=1;" parent="1" vertex="1">
          <mxGeometry x="260" y="30" width="120" height="40" as="geometry" />
        </mxCell>
        <mxCell id="iUSJpiGiCA8plbPMokfl-18" style="edgeStyle=orthogonalEdgeStyle;rounded=0;orthogonalLoop=1;jettySize=auto;html=1;exitX=0.5;exitY=1;exitDx=0;exitDy=0;entryX=0.5;entryY=0;entryDx=0;entryDy=0;" parent="1" source="bTQiq8XwT7r109ES2D-Q-2" target="Ws41thuYhLEm5z5IO52l-1" edge="1">
          <mxGeometry relative="1" as="geometry" />
        </mxCell>
        <mxCell id="bTQiq8XwT7r109ES2D-Q-2" value="Open and read the font data file" style="rounded=0;whiteSpace=wrap;html=1;" parent="1" vertex="1">
          <mxGeometry x="260" y="90" width="120" height="50" as="geometry" />
        </mxCell>
        <mxCell id="iUSJpiGiCA8plbPMokfl-19" style="edgeStyle=orthogonalEdgeStyle;rounded=0;orthogonalLoop=1;jettySize=auto;html=1;exitX=1;exitY=0.5;exitDx=0;exitDy=0;" parent="1" source="Ws41thuYhLEm5z5IO52l-1" target="iUSJpiGiCA8plbPMokfl-1" edge="1">
          <mxGeometry relative="1" as="geometry" />
        </mxCell>
        <mxCell id="iUSJpiGiCA8plbPMokfl-21" style="edgeStyle=orthogonalEdgeStyle;rounded=0;orthogonalLoop=1;jettySize=auto;html=1;exitX=0.5;exitY=1;exitDx=0;exitDy=0;entryX=0.5;entryY=0;entryDx=0;entryDy=0;" parent="1" source="Ws41thuYhLEm5z5IO52l-1" target="iUSJpiGiCA8plbPMokfl-3" edge="1">
          <mxGeometry relative="1" as="geometry" />
        </mxCell>
        <mxCell id="Ws41thuYhLEm5z5IO52l-1" value="Can the font data file be opened?" style="rhombus;whiteSpace=wrap;html=1;" parent="1" vertex="1">
          <mxGeometry x="200" y="160" width="240" height="80" as="geometry" />
        </mxCell>
        <mxCell id="iUSJpiGiCA8plbPMokfl-20" style="edgeStyle=orthogonalEdgeStyle;rounded=0;orthogonalLoop=1;jettySize=auto;html=1;exitX=0.5;exitY=1;exitDx=0;exitDy=0;entryX=0.5;entryY=0;entryDx=0;entryDy=0;" parent="1" source="iUSJpiGiCA8plbPMokfl-1" target="iUSJpiGiCA8plbPMokfl-2" edge="1">
          <mxGeometry relative="1" as="geometry" />
        </mxCell>
        <mxCell id="iUSJpiGiCA8plbPMokfl-1" value="Output error to user the message:&lt;div&gt;&amp;nbsp;&#39;Error opening font file&#39;&lt;/div&gt;" style="shape=parallelogram;perimeter=parallelogramPerimeter;whiteSpace=wrap;html=1;fixedSize=1;" parent="1" vertex="1">
          <mxGeometry x="490" y="180" width="220" height="40" as="geometry" />
        </mxCell>
        <mxCell id="iUSJpiGiCA8plbPMokfl-2" value="Exit (1)" style="ellipse;whiteSpace=wrap;html=1;" parent="1" vertex="1">
          <mxGeometry x="550" y="240" width="100" height="40" as="geometry" />
        </mxCell>
        <mxCell id="iUSJpiGiCA8plbPMokfl-22" value="" style="edgeStyle=orthogonalEdgeStyle;rounded=0;orthogonalLoop=1;jettySize=auto;html=1;" parent="1" source="iUSJpiGiCA8plbPMokfl-3" target="iUSJpiGiCA8plbPMokfl-5" edge="1">
          <mxGeometry relative="1" as="geometry" />
        </mxCell>
        <mxCell id="iUSJpiGiCA8plbPMokfl-49" style="edgeStyle=orthogonalEdgeStyle;rounded=0;orthogonalLoop=1;jettySize=auto;html=1;exitX=1;exitY=0.5;exitDx=0;exitDy=0;entryX=0;entryY=0.5;entryDx=0;entryDy=0;" parent="1" source="iUSJpiGiCA8plbPMokfl-3" target="iUSJpiGiCA8plbPMokfl-46" edge="1">
          <mxGeometry relative="1" as="geometry" />
        </mxCell>
        <mxCell id="iUSJpiGiCA8plbPMokfl-3" value="Read each line of the font data file using a&amp;nbsp;&lt;div&gt;while loop until it reaches to the end&lt;/div&gt;" style="rhombus;whiteSpace=wrap;html=1;" parent="1" vertex="1">
          <mxGeometry x="170" y="290" width="300" height="100" as="geometry" />
        </mxCell>
        <mxCell id="iUSJpiGiCA8plbPMokfl-25" style="edgeStyle=orthogonalEdgeStyle;rounded=0;orthogonalLoop=1;jettySize=auto;html=1;exitX=0.5;exitY=1;exitDx=0;exitDy=0;entryX=0.5;entryY=0;entryDx=0;entryDy=0;" parent="1" source="iUSJpiGiCA8plbPMokfl-5" target="iUSJpiGiCA8plbPMokfl-6" edge="1">
          <mxGeometry relative="1" as="geometry" />
        </mxCell>
        <mxCell id="iUSJpiGiCA8plbPMokfl-27" style="edgeStyle=orthogonalEdgeStyle;rounded=0;orthogonalLoop=1;jettySize=auto;html=1;exitX=0;exitY=0.5;exitDx=0;exitDy=0;entryX=0;entryY=0.5;entryDx=0;entryDy=0;" parent="1" source="iUSJpiGiCA8plbPMokfl-41" target="iUSJpiGiCA8plbPMokfl-3" edge="1">
          <mxGeometry relative="1" as="geometry">
            <Array as="points">
              <mxPoint x="110" y="340" />
            </Array>
          </mxGeometry>
        </mxCell>
        <mxCell id="iUSJpiGiCA8plbPMokfl-5" value="If the first integer&lt;div&gt;is &#39;999&#39;?&lt;/div&gt;" style="rhombus;whiteSpace=wrap;html=1;" parent="1" vertex="1">
          <mxGeometry x="245" y="420" width="150" height="85" as="geometry" />
        </mxCell>
        <mxCell id="iUSJpiGiCA8plbPMokfl-26" style="edgeStyle=orthogonalEdgeStyle;rounded=0;orthogonalLoop=1;jettySize=auto;html=1;exitX=0.5;exitY=1;exitDx=0;exitDy=0;entryX=0.5;entryY=0;entryDx=0;entryDy=0;" parent="1" source="iUSJpiGiCA8plbPMokfl-6" target="iUSJpiGiCA8plbPMokfl-8" edge="1">
          <mxGeometry relative="1" as="geometry" />
        </mxCell>
        <mxCell id="iUSJpiGiCA8plbPMokfl-6" value="Scan the second and third variable of the same line&amp;nbsp;" style="rounded=0;whiteSpace=wrap;html=1;" parent="1" vertex="1">
          <mxGeometry x="245" y="530" width="150" height="45" as="geometry" />
        </mxCell>
        <mxCell id="iUSJpiGiCA8plbPMokfl-28" style="edgeStyle=orthogonalEdgeStyle;rounded=0;orthogonalLoop=1;jettySize=auto;html=1;exitX=0.5;exitY=1;exitDx=0;exitDy=0;entryX=0.5;entryY=0;entryDx=0;entryDy=0;" parent="1" source="iUSJpiGiCA8plbPMokfl-8" target="iUSJpiGiCA8plbPMokfl-9" edge="1">
          <mxGeometry relative="1" as="geometry" />
        </mxCell>
        <mxCell id="iUSJpiGiCA8plbPMokfl-8" value="Store the 2nd variable as the ASCII value, &#39;ASCII&#39;" style="rounded=0;whiteSpace=wrap;html=1;" parent="1" vertex="1">
          <mxGeometry x="245" y="600" width="150" height="60" as="geometry" />
        </mxCell>
        <mxCell id="iUSJpiGiCA8plbPMokfl-29" style="edgeStyle=orthogonalEdgeStyle;rounded=0;orthogonalLoop=1;jettySize=auto;html=1;exitX=0.5;exitY=1;exitDx=0;exitDy=0;entryX=0.5;entryY=0;entryDx=0;entryDy=0;" parent="1" source="iUSJpiGiCA8plbPMokfl-9" target="iUSJpiGiCA8plbPMokfl-11" edge="1">
          <mxGeometry relative="1" as="geometry" />
        </mxCell>
        <mxCell id="iUSJpiGiCA8plbPMokfl-9" value="Store the 3rd variable as the number of movements for the pen to move for that character, &#39;num_movements&#39;" style="rounded=0;whiteSpace=wrap;html=1;" parent="1" vertex="1">
          <mxGeometry x="225" y="680" width="190" height="70" as="geometry" />
        </mxCell>
        <mxCell id="iUSJpiGiCA8plbPMokfl-30" style="edgeStyle=orthogonalEdgeStyle;rounded=0;orthogonalLoop=1;jettySize=auto;html=1;exitX=0.5;exitY=1;exitDx=0;exitDy=0;entryX=0.5;entryY=0;entryDx=0;entryDy=0;" parent="1" source="iUSJpiGiCA8plbPMokfl-11" target="iUSJpiGiCA8plbPMokfl-12" edge="1">
          <mxGeometry relative="1" as="geometry" />
        </mxCell>
        <mxCell id="iUSJpiGiCA8plbPMokfl-11" value="A for loop iteration from j=0&amp;nbsp;&lt;div&gt;to read each&lt;span style=&quot;background-color: initial;&quot;&gt;&amp;nbsp;movement&amp;nbsp;&lt;/span&gt;&lt;div&gt;&lt;div&gt;for that character until the iteration&amp;nbsp;&lt;/div&gt;&lt;div&gt;reaches &#39;num_movements&#39;&lt;/div&gt;&lt;/div&gt;&lt;/div&gt;" style="rhombus;whiteSpace=wrap;html=1;" parent="1" vertex="1">
          <mxGeometry x="180" y="780" width="280" height="110" as="geometry" />
        </mxCell>
        <mxCell id="iUSJpiGiCA8plbPMokfl-32" style="edgeStyle=orthogonalEdgeStyle;rounded=0;orthogonalLoop=1;jettySize=auto;html=1;exitX=0.5;exitY=1;exitDx=0;exitDy=0;entryX=0.5;entryY=0;entryDx=0;entryDy=0;" parent="1" source="iUSJpiGiCA8plbPMokfl-12" target="iUSJpiGiCA8plbPMokfl-16" edge="1">
          <mxGeometry relative="1" as="geometry" />
        </mxCell>
        <mxCell id="iUSJpiGiCA8plbPMokfl-12" value="Scan the line and parse &lt;code&gt;x&lt;/code&gt;, &lt;code&gt;y&lt;/code&gt;, and pen state." style="rounded=0;whiteSpace=wrap;html=1;" parent="1" vertex="1">
          <mxGeometry x="187.5" y="930" width="265" height="30" as="geometry" />
        </mxCell>
        <mxCell id="iUSJpiGiCA8plbPMokfl-16" value="increment &#39;j&#39; by 1" style="rounded=0;whiteSpace=wrap;html=1;" parent="1" vertex="1">
          <mxGeometry x="265" y="990" width="110" height="30" as="geometry" />
        </mxCell>
        <mxCell id="iUSJpiGiCA8plbPMokfl-33" value="True" style="text;html=1;align=center;verticalAlign=middle;whiteSpace=wrap;rounded=0;" parent="1" vertex="1">
          <mxGeometry x="315" y="890" width="60" height="30" as="geometry" />
        </mxCell>
        <mxCell id="iUSJpiGiCA8plbPMokfl-34" value="Yes" style="text;html=1;align=center;verticalAlign=middle;whiteSpace=wrap;rounded=0;" parent="1" vertex="1">
          <mxGeometry x="320" y="500" width="50" height="20" as="geometry" />
        </mxCell>
        <mxCell id="iUSJpiGiCA8plbPMokfl-36" value="" style="endArrow=classic;html=1;rounded=0;exitX=0.5;exitY=1;exitDx=0;exitDy=0;entryX=1;entryY=0.5;entryDx=0;entryDy=0;" parent="1" source="iUSJpiGiCA8plbPMokfl-16" target="iUSJpiGiCA8plbPMokfl-11" edge="1">
          <mxGeometry width="50" height="50" relative="1" as="geometry">
            <mxPoint x="410" y="970" as="sourcePoint" />
            <mxPoint x="460" y="920" as="targetPoint" />
            <Array as="points">
              <mxPoint x="320" y="1060" />
              <mxPoint x="560" y="1060" />
              <mxPoint x="560" y="835" />
            </Array>
          </mxGeometry>
        </mxCell>
        <mxCell id="iUSJpiGiCA8plbPMokfl-37" value="True" style="text;html=1;align=center;verticalAlign=middle;whiteSpace=wrap;rounded=0;" parent="1" vertex="1">
          <mxGeometry x="315" y="390" width="45" height="30" as="geometry" />
        </mxCell>
        <mxCell id="iUSJpiGiCA8plbPMokfl-40" value="False" style="text;html=1;align=center;verticalAlign=middle;whiteSpace=wrap;rounded=0;" parent="1" vertex="1">
          <mxGeometry x="140" y="840" width="60" height="30" as="geometry" />
        </mxCell>
        <mxCell id="iUSJpiGiCA8plbPMokfl-44" value="" style="endArrow=classic;html=1;rounded=0;exitX=0;exitY=0.5;exitDx=0;exitDy=0;entryX=0.944;entryY=0.648;entryDx=0;entryDy=0;entryPerimeter=0;" parent="1" source="iUSJpiGiCA8plbPMokfl-5" target="iUSJpiGiCA8plbPMokfl-41" edge="1">
          <mxGeometry width="50" height="50" relative="1" as="geometry">
            <mxPoint x="220" y="550" as="sourcePoint" />
            <mxPoint x="160" y="460" as="targetPoint" />
            <Array as="points">
              <mxPoint x="170" y="463" />
            </Array>
          </mxGeometry>
        </mxCell>
        <mxCell id="iUSJpiGiCA8plbPMokfl-50" style="edgeStyle=orthogonalEdgeStyle;rounded=0;orthogonalLoop=1;jettySize=auto;html=1;exitX=0.5;exitY=1;exitDx=0;exitDy=0;entryX=0.5;entryY=0;entryDx=0;entryDy=0;" parent="1" source="iUSJpiGiCA8plbPMokfl-46" target="iUSJpiGiCA8plbPMokfl-47" edge="1">
          <mxGeometry relative="1" as="geometry" />
        </mxCell>
        <mxCell id="iUSJpiGiCA8plbPMokfl-46" value="Close the font data file" style="rounded=0;whiteSpace=wrap;html=1;" parent="1" vertex="1">
          <mxGeometry x="550" y="327.5" width="140" height="25" as="geometry" />
        </mxCell>
        <mxCell id="iUSJpiGiCA8plbPMokfl-47" value="End" style="ellipse;whiteSpace=wrap;html=1;" parent="1" vertex="1">
          <mxGeometry x="580" y="390" width="80" height="40" as="geometry" />
        </mxCell>
        <mxCell id="iUSJpiGiCA8plbPMokfl-52" value="" style="endArrow=classic;html=1;rounded=0;exitX=0;exitY=0.5;exitDx=0;exitDy=0;entryX=0.5;entryY=1;entryDx=0;entryDy=0;" parent="1" source="iUSJpiGiCA8plbPMokfl-11" target="iUSJpiGiCA8plbPMokfl-41" edge="1">
          <mxGeometry width="50" height="50" relative="1" as="geometry">
            <mxPoint x="260" y="630" as="sourcePoint" />
            <mxPoint x="310" y="580" as="targetPoint" />
            <Array as="points">
              <mxPoint x="110" y="835" />
            </Array>
          </mxGeometry>
        </mxCell>
        <mxCell id="iUSJpiGiCA8plbPMokfl-41" value="" style="ellipse;whiteSpace=wrap;html=1;aspect=fixed;" parent="1" vertex="1">
          <mxGeometry x="100" y="450" width="20" height="20" as="geometry" />
        </mxCell>
        <mxCell id="iUSJpiGiCA8plbPMokfl-56" value="No" style="text;html=1;align=center;verticalAlign=middle;whiteSpace=wrap;rounded=0;" parent="1" vertex="1">
          <mxGeometry x="187.5" y="460" width="60" height="30" as="geometry" />
        </mxCell>
        <mxCell id="iUSJpiGiCA8plbPMokfl-57" value="False" style="text;html=1;align=center;verticalAlign=middle;whiteSpace=wrap;rounded=0;" parent="1" vertex="1">
          <mxGeometry x="470" y="340" width="60" height="30" as="geometry" />
        </mxCell>
        <mxCell id="614V-VfKlXTCEIau2yv2-1" value="Yes" style="text;html=1;align=center;verticalAlign=middle;whiteSpace=wrap;rounded=0;" vertex="1" parent="1">
          <mxGeometry x="320" y="245" width="60" height="30" as="geometry" />
        </mxCell>
        <mxCell id="614V-VfKlXTCEIau2yv2-2" value="No" style="text;html=1;align=center;verticalAlign=middle;whiteSpace=wrap;rounded=0;" vertex="1" parent="1">
          <mxGeometry x="430" y="170" width="60" height="30" as="geometry" />
        </mxCell>
      </root>
    </mxGraphModel>
  </diagram>
  <diagram id="_kSu166eCwjNmYjObj2Z" name="Page-3">
    <mxGraphModel dx="2060" dy="1276" grid="1" gridSize="10" guides="1" tooltips="1" connect="1" arrows="1" fold="1" page="1" pageScale="1" pageWidth="1654" pageHeight="2336" math="0" shadow="0">
      <root>
        <mxCell id="0" />
        <mxCell id="1" parent="0" />
        <mxCell id="OJz_p4nkgoYyJV8qGX65-1" value="GenerateGcode()" style="shape=process;whiteSpace=wrap;html=1;backgroundOutline=1;" parent="1" vertex="1">
          <mxGeometry x="490" y="30" width="140" height="60" as="geometry" />
        </mxCell>
        <mxCell id="kMnC2l0wHhXDZgIh2-58-29" style="edgeStyle=orthogonalEdgeStyle;rounded=0;orthogonalLoop=1;jettySize=auto;html=1;exitX=0.5;exitY=1;exitDx=0;exitDy=0;entryX=0.5;entryY=0;entryDx=0;entryDy=0;" parent="1" source="1w1dCiltO7fJu1UoILWg-1" target="1w1dCiltO7fJu1UoILWg-2" edge="1">
          <mxGeometry relative="1" as="geometry" />
        </mxCell>
        <mxCell id="1w1dCiltO7fJu1UoILWg-1" value="Calculate the scale factor to adjust the desired font height by:&amp;nbsp;&lt;div&gt;&#39;scale&#39;= desired height/18&lt;div&gt;&lt;br&gt;&lt;/div&gt;&lt;/div&gt;" style="rounded=0;whiteSpace=wrap;html=1;" parent="1" vertex="1">
          <mxGeometry x="450" y="140" width="230" height="60" as="geometry" />
        </mxCell>
        <mxCell id="kMnC2l0wHhXDZgIh2-58-28" style="edgeStyle=orthogonalEdgeStyle;rounded=0;orthogonalLoop=1;jettySize=auto;html=1;exitX=0.5;exitY=1;exitDx=0;exitDy=0;entryX=0.5;entryY=0;entryDx=0;entryDy=0;" parent="1" source="1w1dCiltO7fJu1UoILWg-2" target="1w1dCiltO7fJu1UoILWg-3" edge="1">
          <mxGeometry relative="1" as="geometry" />
        </mxCell>
        <mxCell id="1w1dCiltO7fJu1UoILWg-2" value="Initialise the G-Code&lt;div&gt;F1000&lt;/div&gt;&lt;div&gt;M3&lt;/div&gt;&lt;div&gt;S0&lt;/div&gt;" style="rounded=0;whiteSpace=wrap;html=1;" parent="1" vertex="1">
          <mxGeometry x="495" y="240" width="140" height="60" as="geometry" />
        </mxCell>
        <mxCell id="kMnC2l0wHhXDZgIh2-58-27" style="edgeStyle=orthogonalEdgeStyle;rounded=0;orthogonalLoop=1;jettySize=auto;html=1;exitX=0.5;exitY=1;exitDx=0;exitDy=0;entryX=0.5;entryY=0;entryDx=0;entryDy=0;" parent="1" source="1w1dCiltO7fJu1UoILWg-3" target="1w1dCiltO7fJu1UoILWg-4" edge="1">
          <mxGeometry relative="1" as="geometry" />
        </mxCell>
        <mxCell id="1w1dCiltO7fJu1UoILWg-3" value="Send to SendCommand() function" style="rounded=0;whiteSpace=wrap;html=1;" parent="1" vertex="1">
          <mxGeometry x="505" y="320" width="120" height="60" as="geometry" />
        </mxCell>
        <mxCell id="kMnC2l0wHhXDZgIh2-58-26" style="edgeStyle=orthogonalEdgeStyle;rounded=0;orthogonalLoop=1;jettySize=auto;html=1;exitX=0.5;exitY=1;exitDx=0;exitDy=0;entryX=0.5;entryY=0;entryDx=0;entryDy=0;" parent="1" source="1w1dCiltO7fJu1UoILWg-4" target="1w1dCiltO7fJu1UoILWg-5" edge="1">
          <mxGeometry relative="1" as="geometry" />
        </mxCell>
        <mxCell id="1w1dCiltO7fJu1UoILWg-4" value="A for loop iteration until it reaches&lt;div&gt;&amp;nbsp;the&lt;span style=&quot;background-color: initial;&quot;&gt;&amp;nbsp;&#39;text&#39;s size array&lt;/span&gt;&lt;/div&gt;" style="rhombus;whiteSpace=wrap;html=1;" parent="1" vertex="1">
          <mxGeometry x="445" y="410" width="250" height="80" as="geometry" />
        </mxCell>
        <mxCell id="1w1dCiltO7fJu1UoILWg-10" style="edgeStyle=orthogonalEdgeStyle;rounded=0;orthogonalLoop=1;jettySize=auto;html=1;exitX=0.5;exitY=1;exitDx=0;exitDy=0;entryX=0.5;entryY=0;entryDx=0;entryDy=0;" parent="1" source="1w1dCiltO7fJu1UoILWg-5" target="1w1dCiltO7fJu1UoILWg-7" edge="1">
          <mxGeometry relative="1" as="geometry" />
        </mxCell>
        <mxCell id="1w1dCiltO7fJu1UoILWg-23" style="edgeStyle=orthogonalEdgeStyle;rounded=0;orthogonalLoop=1;jettySize=auto;html=1;exitX=1;exitY=0.5;exitDx=0;exitDy=0;entryX=0;entryY=0.5;entryDx=0;entryDy=0;" parent="1" source="1w1dCiltO7fJu1UoILWg-5" target="1w1dCiltO7fJu1UoILWg-21" edge="1">
          <mxGeometry relative="1" as="geometry" />
        </mxCell>
        <mxCell id="1w1dCiltO7fJu1UoILWg-5" value="A while loop with the condition&amp;nbsp;&lt;div&gt;of&amp;nbsp;&lt;span style=&quot;background-color: initial;&quot;&gt;when the character&amp;nbsp;&lt;/span&gt;&lt;/div&gt;&lt;div&gt;&lt;span style=&quot;background-color: initial;&quot;&gt;is&amp;nbsp;&lt;/span&gt;&lt;span style=&quot;background-color: initial;&quot;&gt;neither a &#39; &#39; nor a &#39;\n&#39;. This is to&amp;nbsp;&lt;/span&gt;&lt;div&gt;calculate the word&#39;s width&lt;/div&gt;&lt;/div&gt;" style="rhombus;whiteSpace=wrap;html=1;" parent="1" vertex="1">
          <mxGeometry x="440" y="530" width="260" height="130" as="geometry" />
        </mxCell>
        <mxCell id="1w1dCiltO7fJu1UoILWg-13" style="edgeStyle=orthogonalEdgeStyle;rounded=0;orthogonalLoop=1;jettySize=auto;html=1;exitX=0.5;exitY=1;exitDx=0;exitDy=0;entryX=0.5;entryY=0;entryDx=0;entryDy=0;" parent="1" source="1w1dCiltO7fJu1UoILWg-7" target="1w1dCiltO7fJu1UoILWg-9" edge="1">
          <mxGeometry relative="1" as="geometry" />
        </mxCell>
        <mxCell id="1w1dCiltO7fJu1UoILWg-17" style="edgeStyle=orthogonalEdgeStyle;rounded=0;orthogonalLoop=1;jettySize=auto;html=1;exitX=0;exitY=0.5;exitDx=0;exitDy=0;entryX=0.5;entryY=1;entryDx=0;entryDy=0;" parent="1" source="1w1dCiltO7fJu1UoILWg-7" target="1w1dCiltO7fJu1UoILWg-8" edge="1">
          <mxGeometry relative="1" as="geometry" />
        </mxCell>
        <mxCell id="1w1dCiltO7fJu1UoILWg-7" value="&lt;b&gt;Is the character&amp;nbsp;&lt;/b&gt;&lt;div&gt;&lt;b&gt;defined&amp;nbsp;&lt;/b&gt;&lt;b style=&quot;background-color: initial;&quot;&gt;within&lt;/b&gt;&lt;div&gt;&lt;div&gt;&lt;b&gt;&amp;nbsp;the font data file?&lt;/b&gt;&amp;nbsp;&lt;/div&gt;&lt;div&gt;(Within the max font data and&lt;/div&gt;&lt;div&gt;&amp;nbsp;ASCII is not zero?)&lt;/div&gt;&lt;/div&gt;&lt;/div&gt;" style="rhombus;whiteSpace=wrap;html=1;" parent="1" vertex="1">
          <mxGeometry x="452.5" y="727" width="235" height="130" as="geometry" />
        </mxCell>
        <mxCell id="1w1dCiltO7fJu1UoILWg-12" style="edgeStyle=orthogonalEdgeStyle;rounded=0;orthogonalLoop=1;jettySize=auto;html=1;exitX=0.5;exitY=0;exitDx=0;exitDy=0;entryX=0;entryY=0.5;entryDx=0;entryDy=0;" parent="1" source="1w1dCiltO7fJu1UoILWg-8" target="1w1dCiltO7fJu1UoILWg-5" edge="1">
          <mxGeometry relative="1" as="geometry">
            <Array as="points">
              <mxPoint x="355" y="595" />
            </Array>
          </mxGeometry>
        </mxCell>
        <mxCell id="1w1dCiltO7fJu1UoILWg-8" value="Add the scaled width (in the x-direction) of the current character to &#39;word_width&#39;" style="rounded=0;whiteSpace=wrap;html=1;" parent="1" vertex="1">
          <mxGeometry x="270" y="670" width="170" height="70" as="geometry" />
        </mxCell>
        <mxCell id="1w1dCiltO7fJu1UoILWg-16" style="edgeStyle=orthogonalEdgeStyle;rounded=0;orthogonalLoop=1;jettySize=auto;html=1;exitX=0.5;exitY=1;exitDx=0;exitDy=0;entryX=0.5;entryY=0;entryDx=0;entryDy=0;" parent="1" source="1w1dCiltO7fJu1UoILWg-9" target="1w1dCiltO7fJu1UoILWg-14" edge="1">
          <mxGeometry relative="1" as="geometry" />
        </mxCell>
        <mxCell id="1w1dCiltO7fJu1UoILWg-9" value="Output the message to the user:&amp;nbsp;&lt;div&gt;&#39;Error: invalid or undefined character found&#39;&lt;/div&gt;" style="shape=parallelogram;perimeter=parallelogramPerimeter;whiteSpace=wrap;html=1;fixedSize=1;" parent="1" vertex="1">
          <mxGeometry x="462.5" y="900" width="215" height="90" as="geometry" />
        </mxCell>
        <mxCell id="1w1dCiltO7fJu1UoILWg-14" value="return 0" style="ellipse;whiteSpace=wrap;html=1;" parent="1" vertex="1">
          <mxGeometry x="515" y="1030" width="110" height="40" as="geometry" />
        </mxCell>
        <mxCell id="1w1dCiltO7fJu1UoILWg-18" value="True" style="text;html=1;align=center;verticalAlign=middle;whiteSpace=wrap;rounded=0;" parent="1" vertex="1">
          <mxGeometry x="570" y="675" width="60" height="30" as="geometry" />
        </mxCell>
        <mxCell id="1w1dCiltO7fJu1UoILWg-19" value="Yes" style="text;html=1;align=center;verticalAlign=middle;whiteSpace=wrap;rounded=0;" parent="1" vertex="1">
          <mxGeometry x="370" y="790" width="60" height="30" as="geometry" />
        </mxCell>
        <mxCell id="1w1dCiltO7fJu1UoILWg-20" value="No" style="text;html=1;align=center;verticalAlign=middle;whiteSpace=wrap;rounded=0;" parent="1" vertex="1">
          <mxGeometry x="570" y="857" width="60" height="30" as="geometry" />
        </mxCell>
        <mxCell id="1w1dCiltO7fJu1UoILWg-24" style="edgeStyle=orthogonalEdgeStyle;rounded=0;orthogonalLoop=1;jettySize=auto;html=1;exitX=0.5;exitY=1;exitDx=0;exitDy=0;" parent="1" source="1w1dCiltO7fJu1UoILWg-21" edge="1">
          <mxGeometry relative="1" as="geometry">
            <mxPoint x="1095" y="820" as="targetPoint" />
          </mxGeometry>
        </mxCell>
        <mxCell id="1w1dCiltO7fJu1UoILWg-25" style="edgeStyle=orthogonalEdgeStyle;rounded=0;orthogonalLoop=1;jettySize=auto;html=1;exitX=1;exitY=0.5;exitDx=0;exitDy=0;entryX=0;entryY=0.5;entryDx=0;entryDy=0;" parent="1" source="1w1dCiltO7fJu1UoILWg-21" target="1w1dCiltO7fJu1UoILWg-22" edge="1">
          <mxGeometry relative="1" as="geometry" />
        </mxCell>
        <mxCell id="1w1dCiltO7fJu1UoILWg-21" value="Does the word fit within the&lt;div&gt;&amp;nbsp;remaining allowable width?&amp;nbsp;&lt;div&gt;(Must not exceed to 100mm)&lt;/div&gt;&lt;/div&gt;" style="rhombus;whiteSpace=wrap;html=1;" parent="1" vertex="1">
          <mxGeometry x="975" y="530" width="240" height="130" as="geometry" />
        </mxCell>
        <mxCell id="1w1dCiltO7fJu1UoILWg-29" style="edgeStyle=orthogonalEdgeStyle;rounded=0;orthogonalLoop=1;jettySize=auto;html=1;exitX=0.5;exitY=1;exitDx=0;exitDy=0;entryX=0.5;entryY=0;entryDx=0;entryDy=0;" parent="1" source="1w1dCiltO7fJu1UoILWg-22" target="1w1dCiltO7fJu1UoILWg-28" edge="1">
          <mxGeometry relative="1" as="geometry" />
        </mxCell>
        <mxCell id="1w1dCiltO7fJu1UoILWg-22" value="Move to the next line by subtracting the current y offset by the desired height." style="rounded=0;whiteSpace=wrap;html=1;" parent="1" vertex="1">
          <mxGeometry x="1270" y="567.5" width="170" height="55" as="geometry" />
        </mxCell>
        <mxCell id="1w1dCiltO7fJu1UoILWg-26" value="No" style="text;html=1;align=center;verticalAlign=middle;whiteSpace=wrap;rounded=0;" parent="1" vertex="1">
          <mxGeometry x="1210" y="567.5" width="60" height="30" as="geometry" />
        </mxCell>
        <mxCell id="RzI5WuY11os_-yEeYaJe-8" style="edgeStyle=orthogonalEdgeStyle;rounded=0;orthogonalLoop=1;jettySize=auto;html=1;exitX=0.5;exitY=1;exitDx=0;exitDy=0;entryX=0.5;entryY=0;entryDx=0;entryDy=0;" parent="1" source="1w1dCiltO7fJu1UoILWg-27" target="1w1dCiltO7fJu1UoILWg-33" edge="1">
          <mxGeometry relative="1" as="geometry" />
        </mxCell>
        <mxCell id="1w1dCiltO7fJu1UoILWg-27" value="A loop to process every&amp;nbsp;&lt;div&gt;character within the word. Condition&amp;nbsp;&lt;/div&gt;&lt;div&gt;&lt;span style=&quot;background-color: initial;&quot;&gt;is as long as the current character&amp;nbsp;&lt;/span&gt;&lt;/div&gt;&lt;div&gt;&lt;span style=&quot;background-color: initial;&quot;&gt;is not &#39; &#39; or &#39;\n&#39;.&lt;/span&gt;&lt;/div&gt;" style="rhombus;whiteSpace=wrap;html=1;" parent="1" vertex="1">
          <mxGeometry x="967.5" y="820" width="255" height="110" as="geometry" />
        </mxCell>
        <mxCell id="1w1dCiltO7fJu1UoILWg-28" value="Reset the horizontal position by setting the x offset to zero." style="rounded=0;whiteSpace=wrap;html=1;" parent="1" vertex="1">
          <mxGeometry x="1277.5" y="660" width="155" height="50" as="geometry" />
        </mxCell>
        <mxCell id="1w1dCiltO7fJu1UoILWg-31" value="False" style="text;html=1;align=center;verticalAlign=middle;whiteSpace=wrap;rounded=0;" parent="1" vertex="1">
          <mxGeometry x="730" y="567.5" width="60" height="30" as="geometry" />
        </mxCell>
        <mxCell id="1w1dCiltO7fJu1UoILWg-32" value="Yes" style="text;html=1;align=center;verticalAlign=middle;whiteSpace=wrap;rounded=0;" parent="1" vertex="1">
          <mxGeometry x="1100" y="670" width="60" height="30" as="geometry" />
        </mxCell>
        <mxCell id="RzI5WuY11os_-yEeYaJe-9" style="edgeStyle=orthogonalEdgeStyle;rounded=0;orthogonalLoop=1;jettySize=auto;html=1;exitX=1;exitY=0.5;exitDx=0;exitDy=0;entryX=0;entryY=0.5;entryDx=0;entryDy=0;" parent="1" source="1w1dCiltO7fJu1UoILWg-33" target="1w1dCiltO7fJu1UoILWg-34" edge="1">
          <mxGeometry relative="1" as="geometry" />
        </mxCell>
        <mxCell id="RzI5WuY11os_-yEeYaJe-10" style="edgeStyle=orthogonalEdgeStyle;rounded=0;orthogonalLoop=1;jettySize=auto;html=1;exitX=0.5;exitY=1;exitDx=0;exitDy=0;entryX=0.5;entryY=0;entryDx=0;entryDy=0;" parent="1" source="1w1dCiltO7fJu1UoILWg-33" target="1w1dCiltO7fJu1UoILWg-35" edge="1">
          <mxGeometry relative="1" as="geometry" />
        </mxCell>
        <mxCell id="1w1dCiltO7fJu1UoILWg-33" value="Are undefined&amp;nbsp;&lt;div&gt;characters&lt;div&gt;&amp;nbsp;found?&lt;/div&gt;&lt;/div&gt;" style="rhombus;whiteSpace=wrap;html=1;" parent="1" vertex="1">
          <mxGeometry x="1017.5" y="970" width="155" height="80" as="geometry" />
        </mxCell>
        <mxCell id="RzI5WuY11os_-yEeYaJe-12" style="edgeStyle=orthogonalEdgeStyle;rounded=0;orthogonalLoop=1;jettySize=auto;html=1;exitX=0.5;exitY=1;exitDx=0;exitDy=0;" parent="1" source="1w1dCiltO7fJu1UoILWg-34" target="1w1dCiltO7fJu1UoILWg-35" edge="1">
          <mxGeometry relative="1" as="geometry">
            <Array as="points">
              <mxPoint x="1300" y="1090" />
              <mxPoint x="1095" y="1090" />
            </Array>
          </mxGeometry>
        </mxCell>
        <mxCell id="1w1dCiltO7fJu1UoILWg-34" value="Skip and Continue" style="rounded=0;whiteSpace=wrap;html=1;" parent="1" vertex="1">
          <mxGeometry x="1255" y="995" width="90" height="30" as="geometry" />
        </mxCell>
        <mxCell id="RzI5WuY11os_-yEeYaJe-11" style="edgeStyle=orthogonalEdgeStyle;rounded=0;orthogonalLoop=1;jettySize=auto;html=1;exitX=0.5;exitY=1;exitDx=0;exitDy=0;" parent="1" source="1w1dCiltO7fJu1UoILWg-35" target="RzI5WuY11os_-yEeYaJe-1" edge="1">
          <mxGeometry relative="1" as="geometry" />
        </mxCell>
        <mxCell id="kMnC2l0wHhXDZgIh2-58-14" style="edgeStyle=orthogonalEdgeStyle;rounded=0;orthogonalLoop=1;jettySize=auto;html=1;exitX=0;exitY=0.5;exitDx=0;exitDy=0;entryX=0.5;entryY=1;entryDx=0;entryDy=0;" parent="1" source="1w1dCiltO7fJu1UoILWg-35" target="BEIgY7Xj62CTlEOO-O5G-2" edge="1">
          <mxGeometry relative="1" as="geometry" />
        </mxCell>
        <mxCell id="1w1dCiltO7fJu1UoILWg-35" value="A for loop to process&amp;nbsp;&lt;div&gt;every&amp;nbsp;&lt;span style=&quot;background-color: initial;&quot;&gt;movement within&amp;nbsp;&lt;/span&gt;&lt;/div&gt;&lt;div&gt;&lt;span style=&quot;background-color: initial;&quot;&gt;the character. Initially j=0,&amp;nbsp;&lt;/span&gt;&lt;/div&gt;&lt;div&gt;&lt;span style=&quot;background-color: initial;&quot;&gt;until reaches&lt;/span&gt;&lt;/div&gt;&lt;div&gt;&lt;span style=&quot;background-color: initial;&quot;&gt;&amp;nbsp;&#39;num_movements&#39;&lt;br&gt;&lt;/span&gt;&lt;/div&gt;" style="rhombus;whiteSpace=wrap;html=1;" parent="1" vertex="1">
          <mxGeometry x="967.5" y="1130" width="255" height="120" as="geometry" />
        </mxCell>
        <mxCell id="RzI5WuY11os_-yEeYaJe-16" style="edgeStyle=orthogonalEdgeStyle;rounded=0;orthogonalLoop=1;jettySize=auto;html=1;exitX=0.5;exitY=1;exitDx=0;exitDy=0;entryX=0.5;entryY=0;entryDx=0;entryDy=0;" parent="1" source="RzI5WuY11os_-yEeYaJe-1" target="RzI5WuY11os_-yEeYaJe-2" edge="1">
          <mxGeometry relative="1" as="geometry" />
        </mxCell>
        <mxCell id="RzI5WuY11os_-yEeYaJe-1" value="Get the x-coordinate and y-coordinate using the dot operator to access the &#39;Movement&#39; structure and multiply by the scaled factor to adjust the text size" style="rounded=0;whiteSpace=wrap;html=1;" parent="1" vertex="1">
          <mxGeometry x="1008.75" y="1280" width="172.5" height="90" as="geometry" />
        </mxCell>
        <mxCell id="RzI5WuY11os_-yEeYaJe-24" style="edgeStyle=orthogonalEdgeStyle;rounded=0;orthogonalLoop=1;jettySize=auto;html=1;exitX=0.5;exitY=1;exitDx=0;exitDy=0;entryX=0.5;entryY=0;entryDx=0;entryDy=0;" parent="1" source="RzI5WuY11os_-yEeYaJe-2" target="RzI5WuY11os_-yEeYaJe-7" edge="1">
          <mxGeometry relative="1" as="geometry" />
        </mxCell>
        <mxCell id="RzI5WuY11os_-yEeYaJe-31" style="edgeStyle=orthogonalEdgeStyle;rounded=0;orthogonalLoop=1;jettySize=auto;html=1;exitX=1;exitY=0.5;exitDx=0;exitDy=0;entryX=0.5;entryY=0;entryDx=0;entryDy=0;" parent="1" source="RzI5WuY11os_-yEeYaJe-2" target="RzI5WuY11os_-yEeYaJe-3" edge="1">
          <mxGeometry relative="1" as="geometry" />
        </mxCell>
        <mxCell id="RzI5WuY11os_-yEeYaJe-2" value="if pen changed state?&lt;span style=&quot;background-color: initial;&quot;&gt;&amp;nbsp;&lt;/span&gt;" style="rhombus;whiteSpace=wrap;html=1;" parent="1" vertex="1">
          <mxGeometry x="1015" y="1400" width="160" height="80" as="geometry" />
        </mxCell>
        <mxCell id="RzI5WuY11os_-yEeYaJe-20" style="edgeStyle=orthogonalEdgeStyle;rounded=0;orthogonalLoop=1;jettySize=auto;html=1;exitX=0.5;exitY=1;exitDx=0;exitDy=0;entryX=0.5;entryY=0;entryDx=0;entryDy=0;" parent="1" source="RzI5WuY11os_-yEeYaJe-3" target="RzI5WuY11os_-yEeYaJe-4" edge="1">
          <mxGeometry relative="1" as="geometry">
            <Array as="points">
              <mxPoint x="1305" y="1565" />
            </Array>
          </mxGeometry>
        </mxCell>
        <mxCell id="RzI5WuY11os_-yEeYaJe-3" value="Change from &#39;S1000&#39; to &#39;S0&#39;. Or if it&#39;s initially &#39;S0&#39; change it to &#39;S1000.&#39;" style="rounded=0;whiteSpace=wrap;html=1;" parent="1" vertex="1">
          <mxGeometry x="1245" y="1505" width="120" height="60" as="geometry" />
        </mxCell>
        <mxCell id="RzI5WuY11os_-yEeYaJe-4" value="Send the changed pen state command using SendCommands() function" style="rounded=0;whiteSpace=wrap;html=1;" parent="1" vertex="1">
          <mxGeometry x="1230" y="1595" width="150" height="70" as="geometry" />
        </mxCell>
        <mxCell id="RzI5WuY11os_-yEeYaJe-5" value="Update the previous pen state" style="rounded=0;whiteSpace=wrap;html=1;" parent="1" vertex="1">
          <mxGeometry x="1230" y="1695" width="140" height="40" as="geometry" />
        </mxCell>
        <mxCell id="RzI5WuY11os_-yEeYaJe-29" style="edgeStyle=orthogonalEdgeStyle;rounded=0;orthogonalLoop=1;jettySize=auto;html=1;exitX=0.5;exitY=1;exitDx=0;exitDy=0;entryX=0.5;entryY=0;entryDx=0;entryDy=0;" parent="1" source="RzI5WuY11os_-yEeYaJe-6" target="RzI5WuY11os_-yEeYaJe-28" edge="1">
          <mxGeometry relative="1" as="geometry" />
        </mxCell>
        <mxCell id="RzI5WuY11os_-yEeYaJe-6" value="Send G-Code commands to robot using SendCommands() function" style="rounded=0;whiteSpace=wrap;html=1;" parent="1" vertex="1">
          <mxGeometry x="1007.5" y="1680" width="175" height="80" as="geometry" />
        </mxCell>
        <mxCell id="RzI5WuY11os_-yEeYaJe-23" style="edgeStyle=orthogonalEdgeStyle;rounded=0;orthogonalLoop=1;jettySize=auto;html=1;exitX=0.5;exitY=1;exitDx=0;exitDy=0;entryX=0.5;entryY=0;entryDx=0;entryDy=0;" parent="1" source="RzI5WuY11os_-yEeYaJe-7" target="RzI5WuY11os_-yEeYaJe-6" edge="1">
          <mxGeometry relative="1" as="geometry" />
        </mxCell>
        <mxCell id="RzI5WuY11os_-yEeYaJe-7" value="Using sprintf to convert the x and y coordinates in the appropriate G-Code format.&amp;nbsp;" style="rounded=0;whiteSpace=wrap;html=1;" parent="1" vertex="1">
          <mxGeometry x="1000" y="1590" width="190" height="60" as="geometry" />
        </mxCell>
        <mxCell id="RzI5WuY11os_-yEeYaJe-14" value="No" style="text;html=1;align=center;verticalAlign=middle;whiteSpace=wrap;rounded=0;" parent="1" vertex="1">
          <mxGeometry x="1040" y="1050" width="60" height="30" as="geometry" />
        </mxCell>
        <mxCell id="RzI5WuY11os_-yEeYaJe-15" value="Yes" style="text;html=1;align=center;verticalAlign=middle;whiteSpace=wrap;rounded=0;" parent="1" vertex="1">
          <mxGeometry x="1181.25" y="980" width="60" height="30" as="geometry" />
        </mxCell>
        <mxCell id="RzI5WuY11os_-yEeYaJe-19" value="Yes" style="text;html=1;align=center;verticalAlign=middle;whiteSpace=wrap;rounded=0;" parent="1" vertex="1">
          <mxGeometry x="1190" y="1410" width="60" height="30" as="geometry" />
        </mxCell>
        <mxCell id="RzI5WuY11os_-yEeYaJe-21" style="edgeStyle=orthogonalEdgeStyle;rounded=0;orthogonalLoop=1;jettySize=auto;html=1;exitX=0.5;exitY=1;exitDx=0;exitDy=0;" parent="1" source="RzI5WuY11os_-yEeYaJe-4" edge="1">
          <mxGeometry relative="1" as="geometry">
            <mxPoint x="1302" y="1695" as="targetPoint" />
          </mxGeometry>
        </mxCell>
        <mxCell id="RzI5WuY11os_-yEeYaJe-25" value="No" style="text;html=1;align=center;verticalAlign=middle;whiteSpace=wrap;rounded=0;" parent="1" vertex="1">
          <mxGeometry x="1035" y="1480" width="60" height="30" as="geometry" />
        </mxCell>
        <mxCell id="kMnC2l0wHhXDZgIh2-58-17" style="edgeStyle=orthogonalEdgeStyle;rounded=0;orthogonalLoop=1;jettySize=auto;html=1;exitX=1;exitY=0.5;exitDx=0;exitDy=0;" parent="1" source="RzI5WuY11os_-yEeYaJe-28" edge="1">
          <mxGeometry relative="1" as="geometry">
            <mxPoint x="1220" y="1190" as="targetPoint" />
            <mxPoint x="1250" y="1826" as="sourcePoint" />
            <Array as="points">
              <mxPoint x="1420" y="1798" />
              <mxPoint x="1420" y="1190" />
            </Array>
          </mxGeometry>
        </mxCell>
        <mxCell id="RzI5WuY11os_-yEeYaJe-28" value="increment j by 1" style="rounded=0;whiteSpace=wrap;html=1;" parent="1" vertex="1">
          <mxGeometry x="1035" y="1780" width="120" height="36" as="geometry" />
        </mxCell>
        <mxCell id="RzI5WuY11os_-yEeYaJe-33" style="edgeStyle=orthogonalEdgeStyle;rounded=0;orthogonalLoop=1;jettySize=auto;html=1;exitX=0;exitY=0.5;exitDx=0;exitDy=0;entryX=1.007;entryY=0.446;entryDx=0;entryDy=0;entryPerimeter=0;" parent="1" source="RzI5WuY11os_-yEeYaJe-5" target="RzI5WuY11os_-yEeYaJe-6" edge="1">
          <mxGeometry relative="1" as="geometry" />
        </mxCell>
        <mxCell id="BEIgY7Xj62CTlEOO-O5G-1" value="True" style="text;html=1;align=center;verticalAlign=middle;whiteSpace=wrap;rounded=0;" parent="1" vertex="1">
          <mxGeometry x="1095" y="1250" width="60" height="30" as="geometry" />
        </mxCell>
        <mxCell id="kMnC2l0wHhXDZgIh2-58-15" style="edgeStyle=orthogonalEdgeStyle;rounded=0;orthogonalLoop=1;jettySize=auto;html=1;exitX=0.5;exitY=0;exitDx=0;exitDy=0;entryX=0;entryY=0.5;entryDx=0;entryDy=0;" parent="1" source="BEIgY7Xj62CTlEOO-O5G-2" target="1w1dCiltO7fJu1UoILWg-27" edge="1">
          <mxGeometry relative="1" as="geometry" />
        </mxCell>
        <mxCell id="BEIgY7Xj62CTlEOO-O5G-2" value="&lt;div style=&quot;font-size: 14px; line-height: 19px; white-space: pre;&quot;&gt;&lt;font face=&quot;Helvetica&quot;&gt;Update the x-offset &lt;/font&gt;&lt;/div&gt;&lt;div style=&quot;font-size: 14px; line-height: 19px; white-space: pre;&quot;&gt;&lt;font face=&quot;Helvetica&quot;&gt;for the next character&lt;/font&gt;&lt;/div&gt;" style="rounded=0;whiteSpace=wrap;html=1;" parent="1" vertex="1">
          <mxGeometry x="790" y="975" width="170" height="50" as="geometry" />
        </mxCell>
        <mxCell id="kMnC2l0wHhXDZgIh2-58-2" value="" style="endArrow=classic;html=1;rounded=0;exitX=0.5;exitY=1;exitDx=0;exitDy=0;" parent="1" source="1w1dCiltO7fJu1UoILWg-28" edge="1">
          <mxGeometry width="50" height="50" relative="1" as="geometry">
            <mxPoint x="920" y="870" as="sourcePoint" />
            <mxPoint x="1100" y="760" as="targetPoint" />
            <Array as="points">
              <mxPoint x="1355" y="760" />
            </Array>
          </mxGeometry>
        </mxCell>
        <mxCell id="kMnC2l0wHhXDZgIh2-58-39" style="edgeStyle=orthogonalEdgeStyle;rounded=0;orthogonalLoop=1;jettySize=auto;html=1;exitX=0.5;exitY=1;exitDx=0;exitDy=0;entryX=0.5;entryY=0;entryDx=0;entryDy=0;" parent="1" source="kMnC2l0wHhXDZgIh2-58-9" target="kMnC2l0wHhXDZgIh2-58-22" edge="1">
          <mxGeometry relative="1" as="geometry" />
        </mxCell>
        <mxCell id="kMnC2l0wHhXDZgIh2-58-9" value="Write the following G-code command to lift the pen and return it to origin:&lt;div&gt;S0&lt;/div&gt;&lt;div&gt;G0 X0 Y0&lt;/div&gt;" style="rounded=0;whiteSpace=wrap;html=1;" parent="1" vertex="1">
          <mxGeometry x="100" y="410" width="150" height="90" as="geometry" />
        </mxCell>
        <mxCell id="kMnC2l0wHhXDZgIh2-58-10" value="True" style="text;html=1;align=center;verticalAlign=middle;whiteSpace=wrap;rounded=0;" parent="1" vertex="1">
          <mxGeometry x="1095" y="930" width="60" height="30" as="geometry" />
        </mxCell>
        <mxCell id="kMnC2l0wHhXDZgIh2-58-19" value="False" style="text;html=1;align=center;verticalAlign=middle;whiteSpace=wrap;rounded=0;" parent="1" vertex="1">
          <mxGeometry x="907.5" y="1153" width="60" height="30" as="geometry" />
        </mxCell>
        <mxCell id="kMnC2l0wHhXDZgIh2-58-20" value="False" style="text;html=1;align=center;verticalAlign=middle;whiteSpace=wrap;rounded=0;" parent="1" vertex="1">
          <mxGeometry x="1240" y="840" width="60" height="30" as="geometry" />
        </mxCell>
        <mxCell id="vdliFvOHqs1oLnACdkOO-2" style="edgeStyle=orthogonalEdgeStyle;rounded=0;orthogonalLoop=1;jettySize=auto;html=1;exitX=0.5;exitY=1;exitDx=0;exitDy=0;entryX=0.5;entryY=0;entryDx=0;entryDy=0;" parent="1" source="kMnC2l0wHhXDZgIh2-58-22" target="vdliFvOHqs1oLnACdkOO-1" edge="1">
          <mxGeometry relative="1" as="geometry" />
        </mxCell>
        <mxCell id="kMnC2l0wHhXDZgIh2-58-22" value="Send to SendCommand() function" style="rounded=0;whiteSpace=wrap;html=1;" parent="1" vertex="1">
          <mxGeometry x="115" y="560" width="120" height="60" as="geometry" />
        </mxCell>
        <mxCell id="kMnC2l0wHhXDZgIh2-58-25" style="edgeStyle=orthogonalEdgeStyle;rounded=0;orthogonalLoop=1;jettySize=auto;html=1;exitX=0.5;exitY=0;exitDx=0;exitDy=0;entryX=1;entryY=0.5;entryDx=0;entryDy=0;" parent="1" source="kMnC2l0wHhXDZgIh2-58-23" target="1w1dCiltO7fJu1UoILWg-4" edge="1">
          <mxGeometry relative="1" as="geometry" />
        </mxCell>
        <mxCell id="kMnC2l0wHhXDZgIh2-58-23" value="Skip new lines (\n) originally in the text array to allow the word to be within the same line&amp;nbsp;" style="rounded=0;whiteSpace=wrap;html=1;" parent="1" vertex="1">
          <mxGeometry x="1410" y="845" width="180" height="60" as="geometry" />
        </mxCell>
        <mxCell id="kMnC2l0wHhXDZgIh2-58-24" style="edgeStyle=orthogonalEdgeStyle;rounded=0;orthogonalLoop=1;jettySize=auto;html=1;exitX=1;exitY=0.5;exitDx=0;exitDy=0;entryX=-0.014;entryY=0.502;entryDx=0;entryDy=0;entryPerimeter=0;" parent="1" source="1w1dCiltO7fJu1UoILWg-27" target="kMnC2l0wHhXDZgIh2-58-23" edge="1">
          <mxGeometry relative="1" as="geometry" />
        </mxCell>
        <mxCell id="kMnC2l0wHhXDZgIh2-58-32" style="edgeStyle=orthogonalEdgeStyle;rounded=0;orthogonalLoop=1;jettySize=auto;html=1;exitX=0.5;exitY=1;exitDx=0;exitDy=0;entryX=0.478;entryY=-0.024;entryDx=0;entryDy=0;entryPerimeter=0;" parent="1" source="OJz_p4nkgoYyJV8qGX65-1" target="1w1dCiltO7fJu1UoILWg-1" edge="1">
          <mxGeometry relative="1" as="geometry" />
        </mxCell>
        <mxCell id="kMnC2l0wHhXDZgIh2-58-33" style="edgeStyle=orthogonalEdgeStyle;rounded=0;orthogonalLoop=1;jettySize=auto;html=1;exitX=0;exitY=0.5;exitDx=0;exitDy=0;entryX=0.991;entryY=0.444;entryDx=0;entryDy=0;entryPerimeter=0;" parent="1" source="1w1dCiltO7fJu1UoILWg-4" target="kMnC2l0wHhXDZgIh2-58-9" edge="1">
          <mxGeometry relative="1" as="geometry">
            <mxPoint x="402.5" y="495" as="sourcePoint" />
          </mxGeometry>
        </mxCell>
        <mxCell id="vdliFvOHqs1oLnACdkOO-1" value="End" style="ellipse;whiteSpace=wrap;html=1;" parent="1" vertex="1">
          <mxGeometry x="145" y="660" width="60" height="40" as="geometry" />
        </mxCell>
        <mxCell id="vdliFvOHqs1oLnACdkOO-3" value="True" style="text;html=1;align=center;verticalAlign=middle;whiteSpace=wrap;rounded=0;" parent="1" vertex="1">
          <mxGeometry x="570" y="490" width="60" height="30" as="geometry" />
        </mxCell>
        <mxCell id="scI6N0FYQjjPX059qhbD-2" value="False" style="text;html=1;align=center;verticalAlign=middle;whiteSpace=wrap;rounded=0;" vertex="1" parent="1">
          <mxGeometry x="360" y="410" width="60" height="30" as="geometry" />
        </mxCell>
      </root>
    </mxGraphModel>
  </diagram>
</mxfile>
